{"asset":{"generator":"3D Builder","version":"2.0"},"scene":0,"scenes":[{"nodes":[0,1,2,3,4,5]}],"nodes":[{"mesh":0,"matrix":[1,0,0,0,0,-1.1920928955078125E-7,-0.99999988079071045,0,0,0.99999988079071045,-1.1920928955078125E-7,0,6.0558318359937857E-9,9.9595457427140719E-16,-1.1872704984551973E-22,1]},{"mesh":1,"matrix":[1,0,0,0,0,-1.1920928955078125E-7,-0.99999988079071045,0,0,0.99999988079071045,-1.1920928955078125E-7,0,6.0558318359937857E-9,9.9595457427140719E-16,-1.1872704984551973E-22,1]},{"mesh":2,"matrix":[1,0,0,0,0,-1.1920928955078125E-7,-0.99999988079071045,0,0,0.99999988079071045,-1.1920928955078125E-7,0,6.0558318359937857E-9,9.9595457427140719E-16,-1.1872704984551973E-22,1]},{"mesh":3,"matrix":[1,0,0,0,0,-1.1920928955078125E-7,-0.99999988079071045,0,0,0.99999988079071045,-1.1920928955078125E-7,0,6.0558318359937857E-9,9.9595457427140719E-16,-1.1872704984551973E-22,1]},{"mesh":4,"matrix":[1,0,0,0,0,-1.1920928955078125E-7,-0.99999988079071045,0,0,0.99999988079071045,-1.1920928955078125E-7,0,6.0558318359937857E-9,9.9595457427140719E-16,-1.1872704984551973E-22,1]},{"mesh":5,"matrix":[1,0,0,0,0,-1.1920928955078125E-7,-0.99999988079071045,0,0,0.99999988079071045,-1.1920928955078125E-7,0,6.0558318359937857E-9,9.9595457427140719E-16,-1.1872704984551973E-22,1]}],"meshes":[{"primitives":[{"attributes":{"POSITION":0},"mode":4,"indices":1,"material":0}]},{"primitives":[{"attributes":{"POSITION":2},"mode":4,"indices":3,"material":1}]},{"primitives":[{"attributes":{"POSITION":4,"COLOR_0":5},"mode":4,"indices":6}]},{"primitives":[{"attributes":{"POSITION":7},"mode":4,"indices":8,"material":1}]},{"primitives":[{"attributes":{"POSITION":9},"mode":4,"indices":10,"material":2}]},{"primitives":[{"attributes":{"POSITION":11},"mode":4,"indices":12,"material":1}]}],"materials":[{"name":"HeadGuard","pbrMetallicRoughness":{"baseColorFactor":[0.057801596820354462,0.057801596820354462,0.057801596820354462,1],"metallicFactor":0.75714302062988281,"roughnessFactor":1},"alphaMode":"OPAQUE"},{"name":"Main_HeadBrass","pbrMetallicRoughness":{"baseColorFactor":[0.18446801602840424,0.13306599855422974,0.042530596256256104,1],"metallicFactor":0.5,"roughnessFactor":0.800000011920929},"alphaMode":"OPAQUE"},{"name":"Main_SteelHandle","pbrMetallicRoughness":{"baseColorFactor":[0.1585330069065094,0.17408196628093719,0.201898992061615,1],"metallicFactor":0.75714302062988281,"roughnessFactor":0.20000000298023224},"alphaMode":"OPAQUE"}],"accessors":[{"bufferView":0,"byteOffset":0,"count":68,"componentType":5126,"type":"VEC3","min":[-0.061723828315734863,-0.050669211894273758,0.39909526705741882],"max":[0.06173308938741684,0.059917617589235306,0.48733529448509216]},{"bufferView":1,"byteOffset":0,"count":420,"componentType":5125,"type":"SCALAR"},{"bufferView":2,"byteOffset":0,"count":40,"componentType":5126,"type":"VEC3","min":[-0.01162372063845396,-0.019860835745930672,0.40758606791496277],"max":[0.011614480055868626,-0.0054903500713407993,0.42968091368675232]},{"bufferView":3,"byteOffset":0,"count":228,"componentType":5125,"type":"SCALAR"},{"bufferView":4,"byteOffset":0,"count":40,"componentType":5126,"type":"VEC3","min":[-0.13343355059623718,-0.14016813039779663,-9.9595468015052559E-16],"max":[0.133433535695076,0.14016813039779663,0.39909517765045166]},{"bufferView":5,"byteOffset":0,"count":40,"componentType":5121,"type":"VEC4","normalized":true},{"bufferView":6,"byteOffset":0,"count":228,"componentType":5125,"type":"SCALAR"},{"bufferView":7,"byteOffset":0,"count":60,"componentType":5126,"type":"VEC3","min":[-0.021347716450691223,-0.022369347512722015,0.39909520745277405],"max":[0.021353960037231445,0.02251824177801609,0.473927766084671]},{"bufferView":8,"byteOffset":0,"count":348,"componentType":5125,"type":"SCALAR"},{"bufferView":9,"byteOffset":0,"count":62,"componentType":5126,"type":"VEC3","min":[-0.023193394765257835,-0.024309974163770676,0.47380682826042175],"max":[0.023190096020698547,0.024473590776324272,0.47966083884239197]},{"bufferView":10,"byteOffset":0,"count":360,"componentType":5125,"type":"SCALAR"},{"bufferView":11,"byteOffset":0,"count":40,"componentType":5126,"type":"VEC3","min":[-0.012659892439842224,0.0061646997928619385,0.42698743939399719],"max":[0.012254532426595688,0.019020523875951767,0.45067587494850159]},{"bufferView":12,"byteOffset":0,"count":228,"componentType":5125,"type":"SCALAR"}],"bufferViews":[{"buffer":0,"byteOffset":0,"byteLength":816,"byteStride":12,"target":34962},{"buffer":0,"byteOffset":816,"byteLength":1680,"target":34963},{"buffer":0,"byteOffset":2496,"byteLength":480,"byteStride":12,"target":34962},{"buffer":0,"byteOffset":2976,"byteLength":912,"target":34963},{"buffer":0,"byteOffset":3888,"byteLength":480,"byteStride":12,"target":34962},{"buffer":0,"byteOffset":4368,"byteLength":160,"byteStride":4,"target":34962},{"buffer":0,"byteOffset":4528,"byteLength":912,"target":34963},{"buffer":0,"byteOffset":5440,"byteLength":720,"byteStride":12,"target":34962},{"buffer":0,"byteOffset":6160,"byteLength":1392,"target":34963},{"buffer":0,"byteOffset":7552,"byteLength":744,"byteStride":12,"target":34962},{"buffer":0,"byteOffset":8296,"byteLength":1440,"target":34963},{"buffer":0,"byteOffset":9736,"byteLength":480,"byteStride":12,"target":34962},{"buffer":0,"byteOffset":10216,"byteLength":912,"target":34963}],"buffers":[{"byteLength":11128,"uri":"scene.bin"}]}