{"asset":{"generator":"3D Builder","version":"2.0"},"scene":0,"scenes":[{"nodes":[0,1,2,3,4,5,6]}],"nodes":[{"mesh":0,"matrix":[1,0,0,0,0,-1.1920928955078125E-7,-0.99999988079071045,0,0,0.99999988079071045,-1.1920928955078125E-7,0,0,4.6202330291700636E-14,3.8757318066018343E-7,1]},{"mesh":1,"matrix":[1,0,0,0,0,-1.1920928955078125E-7,-0.99999988079071045,0,0,0.99999988079071045,-1.1920928955078125E-7,0,0,4.6202330291700636E-14,3.8757318066018343E-7,1]},{"mesh":2,"matrix":[1,0,0,0,0,-1.1920928955078125E-7,-0.99999988079071045,0,0,0.99999988079071045,-1.1920928955078125E-7,0,0,4.6202330291700636E-14,3.8757318066018343E-7,1]},{"mesh":3,"matrix":[1,0,0,0,0,-1.1920928955078125E-7,-0.99999988079071045,0,0,0.99999988079071045,-1.1920928955078125E-7,0,0,4.6202330291700636E-14,3.8757318066018343E-7,1]},{"mesh":4,"matrix":[1,0,0,0,0,-1.1920928955078125E-7,-0.99999988079071045,0,0,0.99999988079071045,-1.1920928955078125E-7,0,0,4.6202330291700636E-14,3.8757318066018343E-7,1]},{"mesh":5,"matrix":[1,0,0,0,0,-1.1920928955078125E-7,-0.99999988079071045,0,0,0.99999988079071045,-1.1920928955078125E-7,0,0,4.6202330291700636E-14,3.8757318066018343E-7,1]},{"mesh":6,"matrix":[1,0,0,0,0,-1.1920928955078125E-7,-0.99999988079071045,0,0,0.99999988079071045,-1.1920928955078125E-7,0,0,4.6202330291700636E-14,3.8757318066018343E-7,1]}],"meshes":[{"primitives":[{"attributes":{"POSITION":0},"mode":4,"indices":1,"material":0}]},{"primitives":[{"attributes":{"POSITION":2},"mode":4,"indices":3,"material":1}]},{"primitives":[{"attributes":{"POSITION":4},"mode":4,"indices":5,"material":2}]},{"primitives":[{"attributes":{"POSITION":6},"mode":4,"indices":7,"material":3}]},{"primitives":[{"attributes":{"POSITION":8},"mode":4,"indices":9,"material":4}]},{"primitives":[{"attributes":{"POSITION":10},"mode":4,"indices":11,"material":5}]},{"primitives":[{"attributes":{"POSITION":12},"mode":4,"indices":13,"material":6}]}],"materials":[{"name":"leaf_green","pbrMetallicRoughness":{"baseColorFactor":[0.02186160534620285,0.17886157333850861,1.582020013302099E-5,1],"metallicFactor":0,"roughnessFactor":0.60000002384185791},"alphaMode":"OPAQUE"},{"name":"tree_wood","pbrMetallicRoughness":{"baseColorFactor":[0.023650540038943291,0.022977618500590324,0.0036709308624267578,1],"metallicFactor":0,"roughnessFactor":0.60000002384185791},"alphaMode":"OPAQUE"},{"name":"leaf_green.002","pbrMetallicRoughness":{"baseColorFactor":[0.032287526875734329,0.167948380112648,0.0012678225757554173,1],"metallicFactor":0,"roughnessFactor":0.60000002384185791},"alphaMode":"OPAQUE"},{"name":"leaf_green.003","pbrMetallicRoughness":{"baseColorFactor":[0.03320646658539772,0.094625502824783325,0.0013417801819741726,1],"metallicFactor":0,"roughnessFactor":0.60000002384185791},"alphaMode":"OPAQUE"},{"name":"leaf_green.005","pbrMetallicRoughness":{"baseColorFactor":[0.0017353382427245378,0.12823893129825592,0.013825572095811367,1],"metallicFactor":0,"roughnessFactor":0.60000002384185791},"alphaMode":"OPAQUE"},{"name":"leaf_green.004","pbrMetallicRoughness":{"baseColorFactor":[0,0.07657969743013382,0.00063591595971956849,1],"metallicFactor":0,"roughnessFactor":0.60000002384185791},"alphaMode":"OPAQUE"},{"name":"leaf_green.001","pbrMetallicRoughness":{"baseColorFactor":[0.018905721604824066,0.22658362984657288,0.02297787182033062,1],"metallicFactor":0,"roughnessFactor":0.60000002384185791},"alphaMode":"OPAQUE"}],"accessors":[{"bufferView":0,"byteOffset":0,"count":41,"componentType":5126,"type":"VEC3","min":[1.030859112739563,-0.70713454484939575,2.863828182220459],"max":[3.2486855983734131,1.2111119031906128,4.9424247741699219]},{"bufferView":1,"byteOffset":0,"count":234,"componentType":5125,"type":"SCALAR"},{"bufferView":2,"byteOffset":0,"count":77,"componentType":5126,"type":"VEC3","min":[-2.05682373046875,-1.3156543970108032,0],"max":[2.0407249927520752,1.7660777568817139,3.1397659778594971]},{"bufferView":3,"byteOffset":0,"count":450,"componentType":5125,"type":"SCALAR"},{"bufferView":4,"byteOffset":0,"count":41,"componentType":5126,"type":"VEC3","min":[-0.66414850950241089,-2.9605908393859863,2.2051389217376709],"max":[2.0066425800323486,-0.52170795202255249,4.3848714828491211]},{"bufferView":5,"byteOffset":0,"count":234,"componentType":5125,"type":"SCALAR"},{"bufferView":6,"byteOffset":0,"count":42,"componentType":5126,"type":"VEC3","min":[-1.3280677795410156,-1.1753395795822144,2.677548885345459],"max":[1.1215361356735229,1.036002516746521,5.122096061706543]},{"bufferView":7,"byteOffset":0,"count":240,"componentType":5125,"type":"SCALAR"},{"bufferView":8,"byteOffset":0,"count":42,"componentType":5126,"type":"VEC3","min":[-0.87264209985733032,0.64551198482513428,2.1695840358734131],"max":[1.4192408323287964,2.9605915546417236,4.0716814994812012]},{"bufferView":9,"byteOffset":0,"count":240,"componentType":5125,"type":"SCALAR"},{"bufferView":10,"byteOffset":0,"count":41,"componentType":5126,"type":"VEC3","min":[-3.2427024841308594,0.027702812105417252,1.9164453744888306],"max":[-0.26195842027664185,2.5775914192199707,4.1735086441040039]},{"bufferView":11,"byteOffset":0,"count":234,"componentType":5125,"type":"SCALAR"},{"bufferView":12,"byteOffset":0,"count":42,"componentType":5126,"type":"VEC3","min":[-3.2486855983734131,-2.0199422836303711,1.7198044061660767],"max":[-1.118557333946228,0.048224732279777527,4.0810198783874512]},{"bufferView":13,"byteOffset":0,"count":240,"componentType":5125,"type":"SCALAR"}],"bufferViews":[{"buffer":0,"byteOffset":0,"byteLength":492,"byteStride":12,"target":34962},{"buffer":0,"byteOffset":492,"byteLength":936,"target":34963},{"buffer":0,"byteOffset":1428,"byteLength":924,"byteStride":12,"target":34962},{"buffer":0,"byteOffset":2352,"byteLength":1800,"target":34963},{"buffer":0,"byteOffset":4152,"byteLength":492,"byteStride":12,"target":34962},{"buffer":0,"byteOffset":4644,"byteLength":936,"target":34963},{"buffer":0,"byteOffset":5580,"byteLength":504,"byteStride":12,"target":34962},{"buffer":0,"byteOffset":6084,"byteLength":960,"target":34963},{"buffer":0,"byteOffset":7044,"byteLength":504,"byteStride":12,"target":34962},{"buffer":0,"byteOffset":7548,"byteLength":960,"target":34963},{"buffer":0,"byteOffset":8508,"byteLength":492,"byteStride":12,"target":34962},{"buffer":0,"byteOffset":9000,"byteLength":936,"target":34963},{"buffer":0,"byteOffset":9936,"byteLength":504,"byteStride":12,"target":34962},{"buffer":0,"byteOffset":10440,"byteLength":960,"target":34963}],"buffers":[{"byteLength":11400,"uri":"scene.bin"}]}