{"asset":{"generator":"3D Builder","version":"2.0"},"scene":0,"scenes":[{"nodes":[0,1,2,3,4,5,6,7,8,9,10,11,12,13,14,15,16,17,18,19]}],"nodes":[{"mesh":0,"matrix":[1,0,0,0,0,-1.1920928955078125E-7,-0.99999988079071045,0,0,0.99999988079071045,-1.1920928955078125E-7,0,0,8.3893082300392878E-15,-1.0000835748997015E-21,1]},{"mesh":1,"matrix":[1,0,0,0,0,-1.1920928955078125E-7,-0.99999988079071045,0,0,0.99999988079071045,-1.1920928955078125E-7,0,0,8.3893082300392878E-15,-1.0000835748997015E-21,1]},{"mesh":2,"matrix":[1,0,0,0,0,-1.1920928955078125E-7,-0.99999988079071045,0,0,0.99999988079071045,-1.1920928955078125E-7,0,0,8.3893082300392878E-15,-1.0000835748997015E-21,1]},{"mesh":3,"matrix":[1,0,0,0,0,-1.1920928955078125E-7,-0.99999988079071045,0,0,0.99999988079071045,-1.1920928955078125E-7,0,0,8.3893082300392878E-15,-1.0000835748997015E-21,1]},{"mesh":4,"matrix":[1,0,0,0,0,-1.1920928955078125E-7,-0.99999988079071045,0,0,0.99999988079071045,-1.1920928955078125E-7,0,0,8.3893082300392878E-15,-1.0000835748997015E-21,1]},{"mesh":5,"matrix":[1,0,0,0,0,-1.1920928955078125E-7,-0.99999988079071045,0,0,0.99999988079071045,-1.1920928955078125E-7,0,0,8.3893082300392878E-15,-1.0000835748997015E-21,1]},{"mesh":6,"matrix":[1,0,0,0,0,-1.1920928955078125E-7,-0.99999988079071045,0,0,0.99999988079071045,-1.1920928955078125E-7,0,0,8.3893082300392878E-15,-1.0000835748997015E-21,1]},{"mesh":7,"matrix":[1,0,0,0,0,-1.1920928955078125E-7,-0.99999988079071045,0,0,0.99999988079071045,-1.1920928955078125E-7,0,0,8.3893082300392878E-15,-1.0000835748997015E-21,1]},{"mesh":8,"matrix":[1,0,0,0,0,-1.1920928955078125E-7,-0.99999988079071045,0,0,0.99999988079071045,-1.1920928955078125E-7,0,0,8.3893082300392878E-15,-1.0000835748997015E-21,1]},{"mesh":9,"matrix":[1,0,0,0,0,-1.1920928955078125E-7,-0.99999988079071045,0,0,0.99999988079071045,-1.1920928955078125E-7,0,0,8.3893082300392878E-15,-1.0000835748997015E-21,1]},{"mesh":10,"matrix":[1,0,0,0,0,-1.1920928955078125E-7,-0.99999988079071045,0,0,0.99999988079071045,-1.1920928955078125E-7,0,0,8.3893082300392878E-15,-1.0000835748997015E-21,1]},{"mesh":11,"matrix":[1,0,0,0,0,-1.1920928955078125E-7,-0.99999988079071045,0,0,0.99999988079071045,-1.1920928955078125E-7,0,0,8.3893082300392878E-15,-1.0000835748997015E-21,1]},{"mesh":12,"matrix":[1,0,0,0,0,-1.1920928955078125E-7,-0.99999988079071045,0,0,0.99999988079071045,-1.1920928955078125E-7,0,0,8.3893082300392878E-15,-1.0000835748997015E-21,1]},{"mesh":13,"matrix":[1,0,0,0,0,-1.1920928955078125E-7,-0.99999988079071045,0,0,0.99999988079071045,-1.1920928955078125E-7,0,0,8.3893082300392878E-15,-1.0000835748997015E-21,1]},{"mesh":14,"matrix":[1,0,0,0,0,-1.1920928955078125E-7,-0.99999988079071045,0,0,0.99999988079071045,-1.1920928955078125E-7,0,0,8.3893082300392878E-15,-1.0000835748997015E-21,1]},{"mesh":15,"matrix":[1,0,0,0,0,-1.1920928955078125E-7,-0.99999988079071045,0,0,0.99999988079071045,-1.1920928955078125E-7,0,0,8.3893082300392878E-15,-1.0000835748997015E-21,1]},{"mesh":16,"matrix":[1,0,0,0,0,-1.1920928955078125E-7,-0.99999988079071045,0,0,0.99999988079071045,-1.1920928955078125E-7,0,0,8.3893082300392878E-15,-1.0000835748997015E-21,1]},{"mesh":17,"matrix":[1,0,0,0,0,-1.1920928955078125E-7,-0.99999988079071045,0,0,0.99999988079071045,-1.1920928955078125E-7,0,0,8.3893082300392878E-15,-1.0000835748997015E-21,1]},{"mesh":18,"matrix":[1,0,0,0,0,-1.1920928955078125E-7,-0.99999988079071045,0,0,0.99999988079071045,-1.1920928955078125E-7,0,0,8.3893082300392878E-15,-1.0000835748997015E-21,1]},{"mesh":19,"matrix":[1,0,0,0,0,-1.1920928955078125E-7,-0.99999988079071045,0,0,0.99999988079071045,-1.1920928955078125E-7,0,0,8.3893082300392878E-15,-1.0000835748997015E-21,1]}],"meshes":[{"primitives":[{"attributes":{"POSITION":0},"mode":4,"indices":1,"material":0}]},{"primitives":[{"attributes":{"POSITION":2},"mode":4,"indices":3,"material":0}]},{"primitives":[{"attributes":{"POSITION":4,"COLOR_0":5},"mode":4,"indices":6}]},{"primitives":[{"attributes":{"POSITION":7},"mode":4,"indices":8,"material":0}]},{"primitives":[{"attributes":{"POSITION":9},"mode":4,"indices":12,"material":1},{"attributes":{"POSITION":10,"COLOR_0":11},"mode":4,"indices":13}]},{"primitives":[{"attributes":{"POSITION":14},"mode":4,"indices":17,"material":1},{"attributes":{"POSITION":15,"COLOR_0":16},"mode":4,"indices":18}]},{"primitives":[{"attributes":{"POSITION":19},"mode":4,"indices":22,"material":1},{"attributes":{"POSITION":20,"COLOR_0":21},"mode":4,"indices":23}]},{"primitives":[{"attributes":{"POSITION":24},"mode":4,"indices":27,"material":1},{"attributes":{"POSITION":25,"COLOR_0":26},"mode":4,"indices":28}]},{"primitives":[{"attributes":{"POSITION":29},"mode":4,"indices":30,"material":0}]},{"primitives":[{"attributes":{"POSITION":31},"mode":4,"indices":32,"material":0}]},{"primitives":[{"attributes":{"POSITION":33},"mode":4,"indices":34,"material":0}]},{"primitives":[{"attributes":{"POSITION":35},"mode":4,"indices":36,"material":0}]},{"primitives":[{"attributes":{"POSITION":37},"mode":4,"indices":38,"material":0}]},{"primitives":[{"attributes":{"POSITION":39},"mode":4,"indices":40,"material":0}]},{"primitives":[{"attributes":{"POSITION":41},"mode":4,"indices":42,"material":0}]},{"primitives":[{"attributes":{"POSITION":43},"mode":4,"indices":44,"material":0}]},{"primitives":[{"attributes":{"POSITION":45},"mode":4,"indices":46,"material":0}]},{"primitives":[{"attributes":{"POSITION":47},"mode":4,"indices":48,"material":0}]},{"primitives":[{"attributes":{"POSITION":49},"mode":4,"indices":50,"material":2}]},{"primitives":[{"attributes":{"POSITION":51},"mode":4,"indices":54,"material":3},{"attributes":{"POSITION":52,"COLOR_0":53},"mode":4,"indices":55}]}],"materials":[{"name":"Material.002","pbrMetallicRoughness":{"baseColorFactor":[0.0549686998128891,0.0549686998128891,0.0549686998128891,1],"metallicFactor":0,"roughnessFactor":0.823941707611084},"alphaMode":"OPAQUE"},{"name":"Material.001","pbrMetallicRoughness":{"baseColorFactor":[0.238398015499115,0.24620096385478973,0.10946199297904968,1],"metallicFactor":0,"roughnessFactor":0.823941707611084},"alphaMode":"OPAQUE"},{"name":"Material.006","pbrMetallicRoughness":{"baseColorFactor":[0.41093796491622925,0.41093796491622925,0.41093796491622925,1],"metallicFactor":0,"roughnessFactor":0.823941707611084},"alphaMode":"OPAQUE"},{"name":"Material.003","pbrMetallicRoughness":{"baseColorFactor":[0.14731398224830627,0.14731398224830627,0.14731398224830627,1],"metallicFactor":0,"roughnessFactor":0.823941707611084},"alphaMode":"OPAQUE"}],"accessors":[{"bufferView":0,"byteOffset":0,"count":8,"componentType":5126,"type":"VEC3","min":[-1.767335057258606,-1.2005597352981567,1.4760351181030273],"max":[-1.6560853719711304,-0.95754927396774292,1.6598175764083862]},{"bufferView":1,"byteOffset":0,"count":36,"componentType":5125,"type":"SCALAR"},{"bufferView":2,"byteOffset":0,"count":8,"componentType":5126,"type":"VEC3","min":[-1.7905714511871338,0.95079439878463745,1.6818207502365112],"max":[-1.632946252822876,1.2073365449905396,2.05704402923584]},{"bufferView":3,"byteOffset":0,"count":36,"componentType":5125,"type":"SCALAR"},{"bufferView":4,"byteOffset":0,"count":16,"componentType":5126,"type":"VEC3","min":[-0.59921252727508545,-1.204684853553772,1.2436422109603882],"max":[3.1175901889801025,1.2047158479690552,2.8873112201690674]},{"bufferView":5,"byteOffset":0,"count":16,"componentType":5121,"type":"VEC4","normalized":true},{"bufferView":6,"byteOffset":0,"count":84,"componentType":5125,"type":"SCALAR"},{"bufferView":7,"byteOffset":0,"count":8,"componentType":5126,"type":"VEC3","min":[-1.767335057258606,0.95760935544967651,1.4760351181030273],"max":[-1.6560853719711304,1.2005206346511841,1.6598175764083862]},{"bufferView":8,"byteOffset":0,"count":36,"componentType":5125,"type":"SCALAR"},{"bufferView":9,"byteOffset":0,"count":40,"componentType":5126,"type":"VEC3","min":[-3.2273168563842773,-0.97649973630905151,0.59707409143447876],"max":[-0.8018757700920105,0.9764677882194519,0.95255357027053833]},{"bufferView":9,"byteOffset":480,"count":146,"componentType":5126,"type":"VEC3","min":[-3.2273168563842773,-0.97649973630905151,0.59707409143447876],"max":[-0.8018757700920105,0.9764677882194519,2.41679310798645]},{"bufferView":10,"byteOffset":0,"count":146,"componentType":5121,"type":"VEC4","normalized":true},{"bufferView":11,"byteOffset":0,"count":177,"componentType":5125,"type":"SCALAR"},{"bufferView":11,"byteOffset":708,"count":693,"componentType":5125,"type":"SCALAR"},{"bufferView":12,"byteOffset":0,"count":12,"componentType":5126,"type":"VEC3","min":[-0.6818389892578125,0.613572895526886,0.3372807502746582],"max":[0.5513949990272522,1.0761362314224243,0.79984444379806519]},{"bufferView":12,"byteOffset":144,"count":12,"componentType":5126,"type":"VEC3","min":[-0.6818389892578125,0.613572895526886,0.3372807502746582],"max":[0.5513949990272522,1.0761362314224243,0.79984444379806519]},{"bufferView":13,"byteOffset":0,"count":12,"componentType":5121,"type":"VEC4","normalized":true},{"bufferView":14,"byteOffset":0,"count":42,"componentType":5125,"type":"SCALAR"},{"bufferView":14,"byteOffset":168,"count":42,"componentType":5125,"type":"SCALAR"},{"bufferView":15,"byteOffset":0,"count":12,"componentType":5126,"type":"VEC3","min":[-0.6818389892578125,-1.0761362314224243,0.3372807502746582],"max":[0.5513949990272522,-0.61357241868972778,0.79984444379806519]},{"bufferView":15,"byteOffset":144,"count":12,"componentType":5126,"type":"VEC3","min":[-0.6818389892578125,-1.0761362314224243,0.3372807502746582],"max":[0.5513949990272522,-0.61357241868972778,0.79984444379806519]},{"bufferView":16,"byteOffset":0,"count":12,"componentType":5121,"type":"VEC4","normalized":true},{"bufferView":17,"byteOffset":0,"count":42,"componentType":5125,"type":"SCALAR"},{"bufferView":17,"byteOffset":168,"count":42,"componentType":5125,"type":"SCALAR"},{"bufferView":18,"byteOffset":0,"count":41,"componentType":5126,"type":"VEC3","min":[-0.66684627532958984,-1.3917876482009888,1.0001212358474731],"max":[3.2488694190979004,1.3917876482009888,1.0001212358474731]},{"bufferView":18,"byteOffset":492,"count":88,"componentType":5126,"type":"VEC3","min":[-0.66684627532958984,-1.3917876482009888,1.0001212358474731],"max":[3.2488694190979004,1.3917876482009888,1.3224426507949829]},{"bufferView":19,"byteOffset":0,"count":88,"componentType":5121,"type":"VEC4","normalized":true},{"bufferView":20,"byteOffset":0,"count":192,"componentType":5125,"type":"SCALAR"},{"bufferView":20,"byteOffset":768,"count":474,"componentType":5125,"type":"SCALAR"},{"bufferView":21,"byteOffset":0,"count":8,"componentType":5126,"type":"VEC3","min":[-1.7905714511871338,-1.2073746919631958,1.6818207502365112],"max":[-1.632946252822876,-0.95076674222946167,2.05704402923584]},{"bufferView":22,"byteOffset":0,"count":36,"componentType":5125,"type":"SCALAR"},{"bufferView":23,"byteOffset":0,"count":22,"componentType":5126,"type":"VEC3","min":[-3.0552723407745361,0.90678805112838745,0.91271299123764038],"max":[-2.8759036064147949,1.143046498298645,1.2908897399902344]},{"bufferView":24,"byteOffset":0,"count":120,"componentType":5125,"type":"SCALAR"},{"bufferView":25,"byteOffset":0,"count":22,"componentType":5126,"type":"VEC3","min":[-3.0552723407745361,-1.1430197954177856,0.91271299123764038],"max":[-2.8759036064147949,-0.90672796964645386,1.2908897399902344]},{"bufferView":26,"byteOffset":0,"count":120,"componentType":5125,"type":"SCALAR"},{"bufferView":27,"byteOffset":0,"count":40,"componentType":5126,"type":"VEC3","min":[3.2293856143951416,-1.2633234262466431,0.49705281853675842],"max":[3.4177110195159912,1.2633181810379028,0.82414835691452026]},{"bufferView":28,"byteOffset":0,"count":228,"componentType":5125,"type":"SCALAR"},{"bufferView":29,"byteOffset":0,"count":16,"componentType":5126,"type":"VEC3","min":[-2.940615177154541,0.95390957593917847,6.7590891379958745E-15],"max":[-2.0122592449188232,1.1716381311416626,0.92835539579391479]},{"bufferView":30,"byteOffset":0,"count":84,"componentType":5125,"type":"SCALAR"},{"bufferView":31,"byteOffset":0,"count":16,"componentType":5126,"type":"VEC3","min":[-2.940615177154541,-1.1780372858047485,-8.3893090770722351E-15],"max":[-2.0122592449188232,-0.96027535200119019,0.92835539579391479]},{"bufferView":32,"byteOffset":0,"count":84,"componentType":5125,"type":"SCALAR"},{"bufferView":33,"byteOffset":0,"count":16,"componentType":5126,"type":"VEC3","min":[0.70060044527053833,-1.1780372858047485,-8.3893090770722351E-15],"max":[1.6290864944458008,-0.96027535200119019,0.92835539579391479]},{"bufferView":34,"byteOffset":0,"count":84,"componentType":5125,"type":"SCALAR"},{"bufferView":35,"byteOffset":0,"count":16,"componentType":5126,"type":"VEC3","min":[0.70060044527053833,0.95390957593917847,6.7590891379958745E-15],"max":[1.6290864944458008,1.1716381311416626,0.92835539579391479]},{"bufferView":36,"byteOffset":0,"count":84,"componentType":5125,"type":"SCALAR"},{"bufferView":37,"byteOffset":0,"count":16,"componentType":5126,"type":"VEC3","min":[1.8432770967483521,0.95390957593917847,6.7590891379958745E-15],"max":[2.7717306613922119,1.1716381311416626,0.92835539579391479]},{"bufferView":38,"byteOffset":0,"count":84,"componentType":5125,"type":"SCALAR"},{"bufferView":39,"byteOffset":0,"count":16,"componentType":5126,"type":"VEC3","min":[1.8432770967483521,-1.1780372858047485,-8.3893090770722351E-15],"max":[2.7717306613922119,-0.96027535200119019,0.92835539579391479]},{"bufferView":40,"byteOffset":0,"count":84,"componentType":5125,"type":"SCALAR"},{"bufferView":41,"byteOffset":0,"count":8,"componentType":5126,"type":"VEC3","min":[-3.2993121147155762,-0.53190881013870239,0.82909101247787476],"max":[-3.1297259330749512,0.53195887804031372,1.5127918720245361]},{"bufferView":42,"byteOffset":0,"count":36,"componentType":5125,"type":"SCALAR"},{"bufferView":43,"byteOffset":0,"count":472,"componentType":5126,"type":"VEC3","min":[-3.4177110195159912,-1.2271677255630493,0.28859198093414307],"max":[3.2458276748657227,1.2272125482559204,1.8726195096969604]},{"bufferView":43,"byteOffset":5664,"count":97,"componentType":5126,"type":"VEC3","min":[-1.3968073129653931,-0.89620757102966309,1.2900511026382446],"max":[3.2458276748657227,0.89625287055969238,1.2900511026382446]},{"bufferView":44,"byteOffset":0,"count":97,"componentType":5121,"type":"VEC4","normalized":true},{"bufferView":45,"byteOffset":0,"count":2625,"componentType":5125,"type":"SCALAR"},{"bufferView":45,"byteOffset":10500,"count":399,"componentType":5125,"type":"SCALAR"}],"bufferViews":[{"buffer":0,"byteOffset":0,"byteLength":96,"byteStride":12,"target":34962},{"buffer":0,"byteOffset":96,"byteLength":144,"target":34963},{"buffer":0,"byteOffset":240,"byteLength":96,"byteStride":12,"target":34962},{"buffer":0,"byteOffset":336,"byteLength":144,"target":34963},{"buffer":0,"byteOffset":480,"byteLength":192,"byteStride":12,"target":34962},{"buffer":0,"byteOffset":672,"byteLength":64,"byteStride":4,"target":34962},{"buffer":0,"byteOffset":736,"byteLength":336,"target":34963},{"buffer":0,"byteOffset":1072,"byteLength":96,"byteStride":12,"target":34962},{"buffer":0,"byteOffset":1168,"byteLength":144,"target":34963},{"buffer":0,"byteOffset":1312,"byteLength":2232,"byteStride":12,"target":34962},{"buffer":0,"byteOffset":3544,"byteLength":584,"byteStride":4,"target":34962},{"buffer":0,"byteOffset":4128,"byteLength":3480,"target":34963},{"buffer":0,"byteOffset":7608,"byteLength":288,"byteStride":12,"target":34962},{"buffer":0,"byteOffset":7896,"byteLength":48,"byteStride":4,"target":34962},{"buffer":0,"byteOffset":7944,"byteLength":336,"target":34963},{"buffer":0,"byteOffset":8280,"byteLength":288,"byteStride":12,"target":34962},{"buffer":0,"byteOffset":8568,"byteLength":48,"byteStride":4,"target":34962},{"buffer":0,"byteOffset":8616,"byteLength":336,"target":34963},{"buffer":0,"byteOffset":8952,"byteLength":1548,"byteStride":12,"target":34962},{"buffer":0,"byteOffset":10500,"byteLength":352,"byteStride":4,"target":34962},{"buffer":0,"byteOffset":10852,"byteLength":2664,"target":34963},{"buffer":0,"byteOffset":13516,"byteLength":96,"byteStride":12,"target":34962},{"buffer":0,"byteOffset":13612,"byteLength":144,"target":34963},{"buffer":0,"byteOffset":13756,"byteLength":264,"byteStride":12,"target":34962},{"buffer":0,"byteOffset":14020,"byteLength":480,"target":34963},{"buffer":0,"byteOffset":14500,"byteLength":264,"byteStride":12,"target":34962},{"buffer":0,"byteOffset":14764,"byteLength":480,"target":34963},{"buffer":0,"byteOffset":15244,"byteLength":480,"byteStride":12,"target":34962},{"buffer":0,"byteOffset":15724,"byteLength":912,"target":34963},{"buffer":0,"byteOffset":16636,"byteLength":192,"byteStride":12,"target":34962},{"buffer":0,"byteOffset":16828,"byteLength":336,"target":34963},{"buffer":0,"byteOffset":17164,"byteLength":192,"byteStride":12,"target":34962},{"buffer":0,"byteOffset":17356,"byteLength":336,"target":34963},{"buffer":0,"byteOffset":17692,"byteLength":192,"byteStride":12,"target":34962},{"buffer":0,"byteOffset":17884,"byteLength":336,"target":34963},{"buffer":0,"byteOffset":18220,"byteLength":192,"byteStride":12,"target":34962},{"buffer":0,"byteOffset":18412,"byteLength":336,"target":34963},{"buffer":0,"byteOffset":18748,"byteLength":192,"byteStride":12,"target":34962},{"buffer":0,"byteOffset":18940,"byteLength":336,"target":34963},{"buffer":0,"byteOffset":19276,"byteLength":192,"byteStride":12,"target":34962},{"buffer":0,"byteOffset":19468,"byteLength":336,"target":34963},{"buffer":0,"byteOffset":19804,"byteLength":96,"byteStride":12,"target":34962},{"buffer":0,"byteOffset":19900,"byteLength":144,"target":34963},{"buffer":0,"byteOffset":20044,"byteLength":6828,"byteStride":12,"target":34962},{"buffer":0,"byteOffset":26872,"byteLength":388,"byteStride":4,"target":34962},{"buffer":0,"byteOffset":27260,"byteLength":12096,"target":34963}],"buffers":[{"byteLength":39356,"uri":"scene.bin"}]}